<svg width="106" height="106" viewBox="0 0 106 106" fill="none" xmlns="http://www.w3.org/2000/svg">
<path d="M24.5371 38.8426V38.7939L39.5437 46.898L47.085 50.9705L48.5772 51.7764V78.8149L25.8097 66.2423C25.0204 65.8064 24.5371 64.9857 24.5371 64.0936V64.057V64.0202V63.9833V63.9461V63.9088V63.8713V63.8336V63.7957V63.7577V63.7195V63.6811V63.6426V63.6038V63.5649V63.5259V63.4866V63.4472V63.4076V63.3679V63.3279V63.2878V63.2476V63.2071V63.1665V63.1258V63.0848V63.0437V63.0025V62.961V62.9195V62.8777V62.8358V62.7937V62.7514V62.709V62.6665V62.6237V62.5809V62.5378V62.4946V62.4512V62.4077V62.364V62.3202V62.2762V62.2321V62.1878V62.1433V62.0987V62.0539V62.009V61.9639V61.9187V61.8733V61.8278V61.7822V61.7363V61.6904V61.6442V61.598V61.5515V61.505V61.4583V61.4114V61.3644V61.3173V61.27V61.2225V61.175V61.1272V61.0794V61.0314V60.9832V60.935V60.8865V60.838V60.7893V60.7404V60.6914V60.6423V60.5931V60.5437V60.4942V60.4445V60.3947V60.3448V60.2947V60.2445V60.1942V60.1437V60.0931V60.0424V59.9916V59.9406V59.8895V59.8382V59.7869V59.7354V59.6837V59.632V59.5801V59.5281V59.476V59.4237V59.3714V59.3189V59.2663V59.2135V59.1606V59.1077V59.0546V59.0013V58.948V58.8945V58.8409V58.7873V58.7334V58.6795V58.6255V58.5713V58.517V58.4626V58.4081V58.3535V58.2987V58.2439V58.1889V58.1339V58.0787V58.0234V57.968V57.9125V57.8569V57.8011V57.7453V57.6894V57.6333V57.5771V57.5209V57.4645V57.4081V57.3515V57.2948V57.238V57.1811V57.1242V57.0671V57.0099V56.9526V56.8952V56.8377V56.7802V56.7225V56.6647V56.6068V56.5488V56.4908V56.4326V56.3744V56.316V56.2576V56.199V56.1404V56.0817V56.0229V55.964V55.905V55.8459V55.7867V55.7275V55.6681V55.6087V55.5491V55.4895V55.4298V55.37V55.3102V55.2502V55.1902V55.1301V55.0699V55.0096V54.9492V54.8888V54.8282V54.7676V54.7069V54.6462V54.5853V54.5244V54.4634V54.4023V54.3412V54.2799V54.2186V54.1573V54.0958V54.0343V53.9727V53.911V53.8493V53.7874V53.7256V53.6636V53.6016V53.5395V53.4773V53.4151V53.3528V53.2904V53.228V53.1655V53.1029V53.0403V52.9776V52.9148V52.852V52.7891V52.7262V52.6631V52.6001V52.5369V52.4737V52.4105V52.3472V52.2838V52.2204V52.1569V52.0934V52.0298V51.9661V51.9024V51.8386V51.7748V51.7109V51.647V51.583V51.519V51.4549V51.3908V51.3266V51.2624V51.1981V51.1338V51.0694V51.005V50.9405V50.876V50.8114V50.7468V50.6821V50.6174V50.5527V50.4879V50.423V50.3582V50.2933V50.2283V50.1633V50.0983V50.0332V49.9681V49.9029V49.8377V49.7725V49.7072V49.6419V49.5766V49.5112V49.4458V49.3803V49.3148V49.2493V49.1838V49.1182V49.0526V48.987V48.9213V48.8556V48.7899V48.7241V48.6583V48.5925V48.5267V48.4608V48.3949V48.329V48.263V48.197V48.1311V48.065V47.999V47.9329V47.8668V47.8007V47.7346V47.6685V47.6023V47.5361V47.4699V47.4037V47.3374V47.2712V47.2049V47.1386V47.0723V47.006V46.9397V46.8733V46.8069V46.7406V46.6742V46.6078V46.5414V46.475V46.4085V46.3421V46.2756V46.2092V46.1427V46.0762V46.0098V45.9433V45.8768V45.8103V45.7438V45.6773V45.6108V45.5443V45.4778V45.4112V45.3447V45.2782V45.2117V45.1452V45.0787V45.0121V44.9456V44.8791V44.8126V44.7461V44.6796V44.6131V44.5466V44.4801V44.4136V44.3472V44.2807V44.2143V44.1478V44.0814V44.0149V43.9485V43.8821V43.8157V43.7493V43.6829V43.6166V43.5502V43.4839V43.4176V43.3513V43.285V43.2187V43.1524V43.0862V43.02V42.9538V42.8876V42.8214V42.7552V42.6891V42.623V42.5569V42.4908V42.4248V42.3588V42.2928V42.2268V42.1609V42.0949V42.029V41.9632V41.8973V41.8315V41.7657V41.7V41.6342V41.5685V41.5028V41.4372V41.3716V41.306V41.2405V41.1749V41.1095V41.044V40.9786V40.9132V40.8479V40.7826V40.7173V40.652V40.5868V40.5217V40.4566V40.3915V40.3264V40.2614V40.1965V40.1315V40.0667V40.0018V39.937V39.8723V39.8076V39.7429V39.6783V39.6137V39.5492V39.4847V39.4203V39.3559V39.2916V39.2273V39.163V39.0988V39.0347V38.9706V38.9066V38.8426ZM54.4366 78.7878V51.7744L78.9092 38.5266L79.1941 63.4881C79.2044 64.3908 78.7201 65.2269 77.9319 65.6671L54.4366 78.7878ZM53.0641 21.3486L75.6413 33.6328L51.5052 46.6984L49.8692 45.8149L42.328 41.7424L27.7496 33.8695L50.7148 21.3456C51.4448 20.9475 52.3248 20.9463 53.0641 21.3486Z" stroke="#20CED9" stroke-width="5.85938"/>
<line x1="2.92969" y1="-2.92969" x2="12.6582" y2="-2.92969" transform="matrix(-0.789816 0.613344 -0.591835 -0.806059 25.8789 79.125)" stroke="#20CED9" stroke-width="5.85938" stroke-linecap="round"/>
<line x1="2.92969" y1="-2.92969" x2="12.6705" y2="-2.92969" transform="matrix(0.771666 0.636028 -0.614687 0.788772 9.54688 15.043)" stroke="#20CED9" stroke-width="5.85938" stroke-linecap="round"/>
<line x1="2.92969" y1="-2.92969" x2="12.6393" y2="-2.92969" transform="matrix(-0.816968 0.576683 -0.555123 -0.831768 92.6191 15.043)" stroke="#20CED9" stroke-width="5.85938" stroke-linecap="round"/>
<line x1="2.92969" y1="-2.92969" x2="12.6729" y2="-2.92969" transform="matrix(0.768088 0.640345 -0.619047 0.785354 76.1309 81.9688)" stroke="#20CED9" stroke-width="5.85938" stroke-linecap="round"/>
<line x1="2.92969" y1="22.8828" x2="2.92969" y2="81.1062" stroke="#20CED9" stroke-width="5.85938" stroke-linecap="round"/>
<line x1="102.93" y1="22.8828" x2="102.93" y2="81.1062" stroke="#20CED9" stroke-width="5.85938" stroke-linecap="round"/>
<line x1="24.5371" y1="3.07031" x2="80.9893" y2="3.07031" stroke="#20CED9" stroke-width="5.85938" stroke-linecap="round"/>
<line x1="23.7832" y1="103.07" x2="80.2354" y2="103.07" stroke="#20CED9" stroke-width="5.85938" stroke-linecap="round"/>
</svg>
