<svg width="289" height="121" viewBox="0 0 289 121" fill="none" xmlns="http://www.w3.org/2000/svg">
<path fill-rule="evenodd" clip-rule="evenodd" d="M46.1333 7.66669L20.464 40.9291L9 90.5885L46.1333 110.733L83.2667 90.5885L71.8027 40.9291L46.1333 7.66669Z" stroke="#4A5568" stroke-width="4"/>
<path d="M20.4667 40.8667L46.1333 110.733L71.8 40.8667" stroke="#4A5568" stroke-width="4"/>
<path d="M46.2 17C50.6183 17 54.2 13.4183 54.2 9C54.2 4.58172 50.6183 1 46.2 1C41.7817 1 38.2 4.58172 38.2 9C38.2 13.4183 41.7817 17 46.2 17Z" fill="#48DCE5" stroke="#4A5568" stroke-width="0.666667"/>
<path d="M46.2 119.8C50.6183 119.8 54.2 116.218 54.2 111.8C54.2 107.382 50.6183 103.8 46.2 103.8C41.7817 103.8 38.2 107.382 38.2 111.8C38.2 116.218 41.7817 119.8 46.2 119.8Z" fill="#48DCE5" stroke="#4A5568" stroke-width="0.666667"/>
<path d="M83.2667 99.6667C87.6849 99.6667 91.2667 96.085 91.2667 91.6667C91.2667 87.2484 87.6849 83.6667 83.2667 83.6667C78.8484 83.6667 75.2667 87.2484 75.2667 91.6667C75.2667 96.085 78.8484 99.6667 83.2667 99.6667Z" fill="#48DCE5" stroke="#4A5568" stroke-width="0.666667"/>
<path d="M72.8667 50.3333C77.285 50.3333 80.8667 46.7516 80.8667 42.3333C80.8667 37.915 77.285 34.3333 72.8667 34.3333C68.4484 34.3333 64.8667 37.915 64.8667 42.3333C64.8667 46.7516 68.4484 50.3333 72.8667 50.3333Z" fill="#48DCE5" stroke="#4A5568" stroke-width="0.666667"/>
<path d="M9 99.6667C13.4183 99.6667 17 96.085 17 91.6667C17 87.2484 13.4183 83.6667 9 83.6667C4.58172 83.6667 1 87.2484 1 91.6667C1 96.085 4.58172 99.6667 9 99.6667Z" fill="#48DCE5" stroke="#4A5568" stroke-width="0.666667"/>
<path d="M20.4667 48.8667C24.885 48.8667 28.4667 45.285 28.4667 40.8667C28.4667 36.4484 24.885 32.8667 20.4667 32.8667C16.0484 32.8667 12.4667 36.4484 12.4667 40.8667C12.4667 45.285 16.0484 48.8667 20.4667 48.8667Z" fill="#48DCE5" stroke="#4A5568" stroke-width="0.666667"/>
<path d="M118.14 61.7397C114.521 60.6997 111.885 59.4253 110.229 57.9165C108.589 56.3931 107.769 54.5181 107.769 52.2915C107.769 49.772 108.772 47.6919 110.779 46.0513C112.8 44.396 115.422 43.5684 118.645 43.5684C120.842 43.5684 122.798 43.9932 124.512 44.8428C126.24 45.6924 127.573 46.8643 128.511 48.3584C129.463 49.8525 129.939 51.4858 129.939 53.2583H125.698C125.698 51.3247 125.083 49.8086 123.853 48.71C122.622 47.5967 120.886 47.04 118.645 47.04C116.565 47.04 114.939 47.5015 113.767 48.4243C112.61 49.3325 112.031 50.5996 112.031 52.2256C112.031 53.5293 112.581 54.6353 113.679 55.5435C114.792 56.437 116.675 57.2573 119.326 58.0044C121.992 58.7515 124.072 59.5791 125.566 60.4873C127.075 61.3809 128.188 62.4282 128.906 63.6294C129.639 64.8306 130.005 66.2441 130.005 67.8701C130.005 70.4629 128.994 72.543 126.973 74.1104C124.951 75.6631 122.249 76.4395 118.865 76.4395C116.667 76.4395 114.617 76.022 112.712 75.187C110.808 74.3374 109.336 73.1802 108.296 71.7153C107.271 70.2505 106.758 68.5879 106.758 66.7275H110.999C110.999 68.6611 111.709 70.1919 113.13 71.3198C114.565 72.4331 116.477 72.9897 118.865 72.9897C121.091 72.9897 122.798 72.5356 123.984 71.6274C125.171 70.7192 125.764 69.4814 125.764 67.9141C125.764 66.3467 125.215 65.1382 124.116 64.2886C123.018 63.4243 121.025 62.5747 118.14 61.7397ZM138.618 52.2256L138.728 54.8623C140.471 52.8115 142.822 51.7861 145.781 51.7861C149.106 51.7861 151.37 53.0605 152.571 55.6094C153.362 54.4668 154.387 53.5439 155.647 52.8408C156.921 52.1377 158.423 51.7861 160.151 51.7861C165.366 51.7861 168.018 54.5474 168.105 60.0698V76H164.041V60.3115C164.041 58.6123 163.652 57.3452 162.876 56.5103C162.1 55.6606 160.796 55.2358 158.965 55.2358C157.456 55.2358 156.204 55.6899 155.208 56.5981C154.211 57.4917 153.633 58.7002 153.472 60.2236V76H149.385V60.4214C149.385 56.9644 147.693 55.2358 144.309 55.2358C141.643 55.2358 139.819 56.3711 138.838 58.6416V76H134.773V52.2256H138.618ZM188.936 76C188.701 75.5312 188.511 74.6963 188.364 73.4951C186.475 75.458 184.219 76.4395 181.597 76.4395C179.253 76.4395 177.327 75.7803 175.818 74.4619C174.324 73.1289 173.577 71.4443 173.577 69.4082C173.577 66.9326 174.514 65.0137 176.389 63.6514C178.279 62.2744 180.93 61.5859 184.343 61.5859H188.298V59.7183C188.298 58.2974 187.874 57.1694 187.024 56.3345C186.174 55.4849 184.922 55.0601 183.267 55.0601C181.816 55.0601 180.601 55.4263 179.619 56.1587C178.638 56.8911 178.147 57.7773 178.147 58.8174H174.06C174.06 57.6309 174.478 56.4883 175.312 55.3896C176.162 54.2764 177.305 53.3975 178.74 52.7529C180.19 52.1084 181.78 51.7861 183.508 51.7861C186.248 51.7861 188.394 52.4746 189.946 53.8516C191.499 55.2139 192.305 57.0962 192.363 59.4985V70.4409C192.363 72.6235 192.642 74.3594 193.198 75.6484V76H188.936ZM182.19 72.9019C183.464 72.9019 184.673 72.5723 185.815 71.9131C186.958 71.2539 187.786 70.397 188.298 69.3423V64.4644H185.112C180.132 64.4644 177.642 65.9219 177.642 68.8369C177.642 70.1113 178.066 71.1074 178.916 71.8252C179.766 72.543 180.857 72.9019 182.19 72.9019ZM210.227 55.873C209.612 55.7705 208.945 55.7192 208.228 55.7192C205.562 55.7192 203.752 56.8545 202.8 59.125V76H198.735V52.2256H202.69L202.756 54.9722C204.089 52.8481 205.979 51.7861 208.425 51.7861C209.216 51.7861 209.817 51.8887 210.227 52.0938V55.873ZM220.598 46.4688V52.2256H225.037V55.3677H220.598V70.1113C220.598 71.0635 220.796 71.7812 221.191 72.2646C221.587 72.7334 222.261 72.9678 223.213 72.9678C223.682 72.9678 224.326 72.8799 225.146 72.7041V76C224.077 76.293 223.037 76.4395 222.026 76.4395C220.21 76.4395 218.84 75.8901 217.917 74.7915C216.995 73.6929 216.533 72.1328 216.533 70.1113V55.3677H212.205V52.2256H216.533V46.4688H220.598Z" fill="#4A5568"/>
<path d="M254.875 61.0366C254.875 64.1274 254.385 66.7935 253.403 69.0347C252.422 71.2612 251.045 73.0044 249.272 74.2642L254.985 78.7466L252.107 81.4053L245.361 76.0439C244.307 76.3076 243.193 76.4395 242.021 76.4395C239.502 76.4395 237.268 75.8242 235.32 74.5938C233.372 73.3486 231.855 71.5835 230.771 69.2983C229.702 66.9985 229.153 64.3398 229.124 61.3223V59.0151C229.124 55.939 229.658 53.2217 230.728 50.8633C231.797 48.5049 233.306 46.7031 235.254 45.458C237.217 44.1982 239.458 43.5684 241.978 43.5684C244.556 43.5684 246.819 44.1909 248.767 45.436C250.73 46.6812 252.239 48.4756 253.293 50.8193C254.348 53.1484 254.875 55.873 254.875 58.9932V61.0366ZM250.657 58.9712C250.657 55.2065 249.902 52.3062 248.394 50.27C246.899 48.2192 244.761 47.1938 241.978 47.1938C239.326 47.1938 237.231 48.2119 235.693 50.248C234.17 52.2695 233.386 55.082 233.342 58.6855V61.0366C233.342 64.6987 234.104 67.5845 235.627 69.6938C237.166 71.8032 239.297 72.8579 242.021 72.8579C244.746 72.8579 246.855 71.8691 248.35 69.8916C249.844 67.8994 250.613 65.0503 250.657 61.3442V58.9712ZM265.62 72.5503H280.781V76H261.379V44.0078H265.62V72.5503Z" fill="#48DCE5"/>
</svg>
