<svg width="150" height="150" viewBox="0 0 150 150" fill="none" xmlns="http://www.w3.org/2000/svg">
<path d="M75.4743 19.8875C82.7719 19.8875 88.6878 15.4355 88.6878 9.94376C88.6878 4.45197 82.7719 0 75.4743 0C68.1766 0 62.2607 4.45197 62.2607 9.94376C62.2607 15.4355 68.1766 19.8875 75.4743 19.8875Z" fill="#48CDD6"/>
<path d="M75.5267 150C82.8244 150 88.7403 145.548 88.7403 140.056C88.7403 134.564 82.8244 130.112 75.5267 130.112C68.2291 130.112 62.3132 134.564 62.3132 140.056C62.3132 145.548 68.2291 150 75.5267 150Z" fill="#48CDD6"/>
<path d="M13.2135 122.369C20.5111 122.369 26.427 117.917 26.427 112.425C26.427 106.933 20.5111 102.482 13.2135 102.482C5.91589 102.482 0 106.933 0 112.425C0 117.917 5.91589 122.369 13.2135 122.369Z" fill="#48CDD6"/>
<path d="M28.7459 58.2909C35.1932 58.2909 40.4198 53.7531 40.4198 48.1554C40.4198 42.5577 35.1932 38.0198 28.7459 38.0198C22.2986 38.0198 17.072 42.5577 17.072 48.1554C17.072 53.7531 22.2986 58.2909 28.7459 58.2909Z" fill="#48CDD6"/>
<path d="M38.5947 40.9532L58.4708 15.3433L63.9466 22.5234L38.5947 40.9532Z" fill="#4A5568"/>
<path d="M15.2873 100.792L18.0668 59.4055L25.0155 61.6578L15.2873 100.792Z" fill="#4A5568"/>
<path d="M68.3755 124.442L32.52 62.5026L38.6349 58.5609L68.3755 124.442Z" fill="#4A5568"/>
<path d="M26.6831 118.248L60.593 130.636L57.2577 137.393L26.6831 118.248Z" fill="#4A5568"/>
<path d="M137.831 122.087C130.558 122.087 124.662 117.636 124.662 112.144C124.662 106.652 130.558 102.2 137.831 102.2C145.104 102.2 151 106.652 151 112.144C151 117.636 145.104 122.087 137.831 122.087Z" fill="#48CDD6"/>
<path d="M122.177 58.2909C115.751 58.2909 110.542 53.7531 110.542 48.1554C110.542 42.5577 115.751 38.0198 122.177 38.0198C128.602 38.0198 133.811 42.5577 133.811 48.1554C133.811 53.7531 128.602 58.2909 122.177 58.2909Z" fill="#48CDD6"/>
<path d="M111.28 41.1251L91.3231 15.6686L86.1781 22.5237L111.28 41.1251Z" fill="#4A5568"/>
<path d="M135.764 100.511L132.994 59.124L126.069 61.3763L135.764 100.511Z" fill="#4A5568"/>
<path d="M82.854 124.16L118.589 62.2211L112.495 58.2794L82.854 124.16Z" fill="#4A5568"/>
<path d="M124.407 117.966L90.6105 130.354L93.9347 137.111L124.407 117.966Z" fill="#4A5568"/>
</svg>
