<svg width="75" height="75" viewBox="0 0 75 75" fill="none" xmlns="http://www.w3.org/2000/svg">
<path d="M37.4873 9.94376C41.112 9.94376 44.0503 7.71777 44.0503 4.97188C44.0503 2.22599 41.112 0 37.4873 0C33.8627 0 30.9243 2.22599 30.9243 4.97188C30.9243 7.71777 33.8627 9.94376 37.4873 9.94376Z" fill="#48CDD6"/>
<path d="M37.5132 75C41.1378 75 44.0762 72.774 44.0762 70.0281C44.0762 67.2822 41.1378 65.0562 37.5132 65.0562C33.8886 65.0562 30.9502 67.2822 30.9502 70.0281C30.9502 72.774 33.8886 75 37.5132 75Z" fill="#48CDD6"/>
<path d="M6.563 61.1845C10.1877 61.1845 13.126 58.9585 13.126 56.2126C13.126 53.4667 10.1877 51.2408 6.563 51.2408C2.93836 51.2408 0 53.4667 0 56.2126C0 58.9585 2.93836 61.1845 6.563 61.1845Z" fill="#48CDD6"/>
<path d="M14.2778 29.1455C17.4801 29.1455 20.0761 26.8765 20.0761 24.0777C20.0761 21.2788 17.4801 19.0099 14.2778 19.0099C11.0755 19.0099 8.47949 21.2788 8.47949 24.0777C8.47949 26.8765 11.0755 29.1455 14.2778 29.1455Z" fill="#48CDD6"/>
<path d="M19.1695 20.4766L29.0418 7.67164L31.7615 11.2617L19.1695 20.4766Z" fill="#4A5568"/>
<path d="M7.59312 50.3962L8.97367 29.7028L12.425 30.8289L7.59312 50.3962Z" fill="#4A5568"/>
<path d="M33.9612 62.2209L16.1521 31.2513L19.1893 29.2805L33.9612 62.2209Z" fill="#4A5568"/>
<path d="M13.2533 59.1239L30.096 65.3179L28.4394 68.6964L13.2533 59.1239Z" fill="#4A5568"/>
<path d="M68.459 61.0437C64.8466 61.0437 61.9181 58.8177 61.9181 56.0719C61.9181 53.326 64.8466 51.1 68.459 51.1C72.0715 51.1 75 53.326 75 56.0719C75 58.8177 72.0715 61.0437 68.459 61.0437Z" fill="#48CDD6"/>
<path d="M60.6838 29.1455C57.4923 29.1455 54.905 26.8765 54.905 24.0777C54.905 21.2788 57.4923 19.0099 60.6838 19.0099C63.8754 19.0099 66.4626 21.2788 66.4626 24.0777C66.4626 26.8765 63.8754 29.1455 60.6838 29.1455Z" fill="#48CDD6"/>
<path d="M55.2714 20.5626L45.3591 7.83431L42.8036 11.2618L55.2714 20.5626Z" fill="#4A5568"/>
<path d="M67.4326 50.2554L66.0567 29.562L62.6169 30.6881L67.4326 50.2554Z" fill="#4A5568"/>
<path d="M41.1527 62.0802L58.9019 31.1105L55.8749 29.1397L41.1527 62.0802Z" fill="#4A5568"/>
<path d="M61.7914 58.9832L45.0053 65.1771L46.6563 68.5556L61.7914 58.9832Z" fill="#4A5568"/>
</svg>
