<svg width="262" height="94" viewBox="0 0 262 94" fill="none" xmlns="http://www.w3.org/2000/svg">
<path fill-rule="evenodd" clip-rule="evenodd" d="M37 5.88214L16.5252 30.241L7.3811 66.6077L37 81.3603L66.6189 66.6077L57.4748 30.241L37 5.88214Z" stroke="#4A5568" stroke-width="4"/>
<path d="M16.5273 30.1953L37 81.3603L57.4727 30.1953" stroke="#4A5568" stroke-width="4"/>
<path d="M37.0532 12.7172C40.5774 12.7172 43.4343 10.0942 43.4343 6.85859C43.4343 3.62298 40.5774 1 37.0532 1C33.529 1 30.6721 3.62298 30.6721 6.85859C30.6721 10.0942 33.529 12.7172 37.0532 12.7172Z" fill="#48DCE5" stroke="#4A5568" stroke-width="0.666667"/>
<path d="M37.0532 88C40.5774 88 43.4343 85.377 43.4343 82.1414C43.4343 78.9058 40.5774 76.2828 37.0532 76.2828C33.529 76.2828 30.6721 78.9058 30.6721 82.1414C30.6721 85.377 33.529 88 37.0532 88Z" fill="#48DCE5" stroke="#4A5568" stroke-width="0.666667"/>
<path d="M66.6189 73.2559C70.1431 73.2559 73 70.633 73 67.3973C73 64.1617 70.1431 61.5388 66.6189 61.5388C63.0947 61.5388 60.2378 64.1617 60.2378 67.3973C60.2378 70.633 63.0947 73.2559 66.6189 73.2559Z" fill="#48DCE5" stroke="#4A5568" stroke-width="0.666667"/>
<path d="M58.3235 37.1279C61.8477 37.1279 64.7046 34.505 64.7046 31.2694C64.7046 28.0337 61.8477 25.4108 58.3235 25.4108C54.7994 25.4108 51.9424 28.0337 51.9424 31.2694C51.9424 34.505 54.7994 37.1279 58.3235 37.1279Z" fill="#48DCE5" stroke="#4A5568" stroke-width="0.666667"/>
<path d="M7.38109 73.2559C10.9053 73.2559 13.7622 70.633 13.7622 67.3973C13.7622 64.1617 10.9053 61.5388 7.38109 61.5388C3.85691 61.5388 1 64.1617 1 67.3973C1 70.633 3.85691 73.2559 7.38109 73.2559Z" fill="#48DCE5" stroke="#4A5568" stroke-width="0.666667"/>
<path d="M16.5273 36.0539C20.0515 36.0539 22.9084 33.4309 22.9084 30.1953C22.9084 26.9597 20.0515 24.3367 16.5273 24.3367C13.0032 24.3367 10.1462 26.9597 10.1462 30.1953C10.1462 33.4309 13.0032 36.0539 16.5273 36.0539Z" fill="#48DCE5" stroke="#4A5568" stroke-width="0.666667"/>
<path d="M91.1396 45.7397C87.5215 44.6997 84.8848 43.4253 83.2295 41.9165C81.5889 40.3931 80.7686 38.5181 80.7686 36.2915C80.7686 33.772 81.772 31.6919 83.7788 30.0513C85.8003 28.396 88.4224 27.5684 91.645 27.5684C93.8423 27.5684 95.7979 27.9932 97.5117 28.8428C99.2402 29.6924 100.573 30.8643 101.511 32.3584C102.463 33.8525 102.939 35.4858 102.939 37.2583H98.6982C98.6982 35.3247 98.083 33.8086 96.8525 32.71C95.6221 31.5967 93.8862 31.04 91.645 31.04C89.5649 31.04 87.939 31.5015 86.7671 32.4243C85.6099 33.3325 85.0312 34.5996 85.0312 36.2256C85.0312 37.5293 85.5806 38.6353 86.6792 39.5435C87.7925 40.437 89.6748 41.2573 92.3262 42.0044C94.9922 42.7515 97.0723 43.5791 98.5664 44.4873C100.075 45.3809 101.188 46.4282 101.906 47.6294C102.639 48.8306 103.005 50.2441 103.005 51.8701C103.005 54.4629 101.994 56.543 99.9727 58.1104C97.9512 59.6631 95.2485 60.4395 91.8647 60.4395C89.6675 60.4395 87.6167 60.022 85.7124 59.187C83.8081 58.3374 82.3359 57.1802 81.2959 55.7153C80.2705 54.2505 79.7578 52.5879 79.7578 50.7275H83.9985C83.9985 52.6611 84.709 54.1919 86.1299 55.3198C87.5654 56.4331 89.4771 56.9897 91.8647 56.9897C94.0913 56.9897 95.7979 56.5356 96.9844 55.6274C98.1709 54.7192 98.7642 53.4814 98.7642 51.9141C98.7642 50.3467 98.2148 49.1382 97.1162 48.2886C96.0176 47.4243 94.0254 46.5747 91.1396 45.7397ZM111.618 36.2256L111.728 38.8623C113.471 36.8115 115.822 35.7861 118.781 35.7861C122.106 35.7861 124.37 37.0605 125.571 39.6094C126.362 38.4668 127.387 37.5439 128.647 36.8408C129.921 36.1377 131.423 35.7861 133.151 35.7861C138.366 35.7861 141.018 38.5474 141.105 44.0698V60H137.041V44.3115C137.041 42.6123 136.652 41.3452 135.876 40.5103C135.1 39.6606 133.796 39.2358 131.965 39.2358C130.456 39.2358 129.204 39.6899 128.208 40.5981C127.211 41.4917 126.633 42.7002 126.472 44.2236V60H122.385V44.4214C122.385 40.9644 120.693 39.2358 117.309 39.2358C114.643 39.2358 112.819 40.3711 111.838 42.6416V60H107.773V36.2256H111.618ZM161.936 60C161.701 59.5312 161.511 58.6963 161.364 57.4951C159.475 59.458 157.219 60.4395 154.597 60.4395C152.253 60.4395 150.327 59.7803 148.818 58.4619C147.324 57.1289 146.577 55.4443 146.577 53.4082C146.577 50.9326 147.514 49.0137 149.389 47.6514C151.279 46.2744 153.93 45.5859 157.343 45.5859H161.298V43.7183C161.298 42.2974 160.874 41.1694 160.024 40.3345C159.174 39.4849 157.922 39.0601 156.267 39.0601C154.816 39.0601 153.601 39.4263 152.619 40.1587C151.638 40.8911 151.147 41.7773 151.147 42.8174H147.06C147.06 41.6309 147.478 40.4883 148.312 39.3896C149.162 38.2764 150.305 37.3975 151.74 36.7529C153.19 36.1084 154.78 35.7861 156.508 35.7861C159.248 35.7861 161.394 36.4746 162.946 37.8516C164.499 39.2139 165.305 41.0962 165.363 43.4985V54.4409C165.363 56.6235 165.642 58.3594 166.198 59.6484V60H161.936ZM155.19 56.9019C156.464 56.9019 157.673 56.5723 158.815 55.9131C159.958 55.2539 160.786 54.397 161.298 53.3423V48.4644H158.112C153.132 48.4644 150.642 49.9219 150.642 52.8369C150.642 54.1113 151.066 55.1074 151.916 55.8252C152.766 56.543 153.857 56.9019 155.19 56.9019ZM183.227 39.873C182.612 39.7705 181.945 39.7192 181.228 39.7192C178.562 39.7192 176.752 40.8545 175.8 43.125V60H171.735V36.2256H175.69L175.756 38.9722C177.089 36.8481 178.979 35.7861 181.425 35.7861C182.216 35.7861 182.817 35.8887 183.227 36.0938V39.873ZM193.598 30.4688V36.2256H198.037V39.3677H193.598V54.1113C193.598 55.0635 193.796 55.7812 194.191 56.2646C194.587 56.7334 195.261 56.9678 196.213 56.9678C196.682 56.9678 197.326 56.8799 198.146 56.7041V60C197.077 60.293 196.037 60.4395 195.026 60.4395C193.21 60.4395 191.84 59.8901 190.917 58.7915C189.995 57.6929 189.533 56.1328 189.533 54.1113V39.3677H185.205V36.2256H189.533V30.4688H193.598Z" fill="#4A5568"/>
<path d="M227.875 45.0366C227.875 48.1274 227.385 50.7935 226.403 53.0347C225.422 55.2612 224.045 57.0044 222.272 58.2642L227.985 62.7466L225.107 65.4053L218.361 60.0439C217.307 60.3076 216.193 60.4395 215.021 60.4395C212.502 60.4395 210.268 59.8242 208.32 58.5938C206.372 57.3486 204.855 55.5835 203.771 53.2983C202.702 50.9985 202.153 48.3398 202.124 45.3223V43.0151C202.124 39.939 202.658 37.2217 203.728 34.8633C204.797 32.5049 206.306 30.7031 208.254 29.458C210.217 28.1982 212.458 27.5684 214.978 27.5684C217.556 27.5684 219.819 28.1909 221.767 29.436C223.73 30.6812 225.239 32.4756 226.293 34.8193C227.348 37.1484 227.875 39.873 227.875 42.9932V45.0366ZM223.657 42.9712C223.657 39.2065 222.902 36.3062 221.394 34.27C219.899 32.2192 217.761 31.1938 214.978 31.1938C212.326 31.1938 210.231 32.2119 208.693 34.248C207.17 36.2695 206.386 39.082 206.342 42.6855V45.0366C206.342 48.6987 207.104 51.5845 208.627 53.6938C210.166 55.8032 212.297 56.8579 215.021 56.8579C217.746 56.8579 219.855 55.8691 221.35 53.8916C222.844 51.8994 223.613 49.0503 223.657 45.3442V42.9712ZM238.62 56.5503H253.781V60H234.379V28.0078H238.62V56.5503Z" fill="#48DCE5"/>
</svg>
