<svg width="1084" height="1084" viewBox="0 0 1084 1084" fill="none" xmlns="http://www.w3.org/2000/svg">
<path d="M251.273 396.29V395.791L404.941 478.777L482.164 520.48L497.444 528.732V805.606L264.305 676.863C256.222 672.399 251.273 663.996 251.273 654.861V654.486V654.109V653.73V653.35V652.968V652.584V652.198V651.81V651.421V651.03V650.637V650.242V649.845V649.447V649.047V648.645V648.241V647.836V647.429V647.02V646.609V646.197V645.783V645.367V644.95V644.531V644.11V643.687V643.263V642.837V642.41V641.98V641.549V641.117V640.682V640.247V639.809V639.37V638.929V638.487V638.043V637.597V637.15V636.701V636.25V635.798V635.345V634.889V634.433V633.974V633.514V633.053V632.59V632.125V631.659V631.191V630.722V630.251V629.779V629.305V628.83V628.353V627.875V627.395V626.913V626.431V625.946V625.461V624.974V624.485V623.995V623.503V623.01V622.516V622.02V621.523V621.024V620.524V620.022V619.519V619.015V618.509V618.002V617.493V616.984V616.472V615.96V615.446V614.93V614.414V613.896V613.376V612.855V612.333V611.81V611.285V610.759V610.232V609.703V609.173V608.642V608.11V607.576V607.041V606.505V605.967V605.428V604.888V604.347V603.804V603.261V602.716V602.169V601.622V601.073V600.523V599.972V599.42V598.866V598.312V597.756V597.199V596.641V596.082V595.521V594.959V594.397V593.833V593.268V592.701V592.134V591.566V590.996V590.425V589.854V589.281V588.707V588.132V587.556V586.979V586.4V585.821V585.241V584.659V584.077V583.493V582.909V582.323V581.737V581.149V580.56V579.971V579.38V578.788V578.196V577.602V577.007V576.412V575.815V575.218V574.619V574.02V573.42V572.818V572.216V571.613V571.009V570.404V569.798V569.191V568.583V567.975V567.365V566.755V566.143V565.531V564.918V564.304V563.689V563.074V562.457V561.84V561.222V560.603V559.983V559.362V558.741V558.119V557.496V556.872V556.247V555.622V554.996V554.369V553.741V553.112V552.483V551.853V551.222V550.591V549.958V549.325V548.692V548.057V547.422V546.786V546.15V545.512V544.874V544.236V543.596V542.956V542.316V541.674V541.032V540.39V539.746V539.102V538.458V537.812V537.167V536.52V535.873V535.225V534.577V533.928V533.279V532.629V531.978V531.327V530.675V530.022V529.369V528.716V528.062V527.407V526.752V526.096V525.44V524.784V524.126V523.469V522.81V522.152V521.492V520.833V520.172V519.512V518.85V518.189V517.527V516.864V516.201V515.538V514.874V514.21V513.545V512.88V512.214V511.548V510.882V510.215V509.548V508.88V508.212V507.544V506.875V506.206V505.536V504.867V504.196V503.526V502.855V502.184V501.512V500.84V500.168V499.496V498.823V498.15V497.477V496.803V496.129V495.455V494.78V494.106V493.43V492.755V492.08V491.404V490.728V490.052V489.375V488.698V488.021V487.344V486.667V485.989V485.312V484.634V483.956V483.277V482.599V481.92V481.241V480.562V479.883V479.204V478.525V477.845V477.165V476.486V475.806V475.126V474.445V473.765V473.085V472.404V471.724V471.043V470.363V469.682V469.001V468.32V467.639V466.958V466.277V465.596V464.915V464.234V463.553V462.872V462.191V461.51V460.828V460.147V459.466V458.785V458.104V457.423V456.742V456.061V455.38V454.699V454.018V453.338V452.657V451.976V451.296V450.615V449.935V449.255V448.575V447.895V447.215V446.535V445.855V445.176V444.496V443.817V443.138V442.459V441.78V441.101V440.423V439.744V439.066V438.388V437.711V437.033V436.356V435.678V435.001V434.325V433.648V432.972V432.296V431.62V430.944V430.269V429.594V428.919V428.245V427.57V426.897V426.223V425.549V424.876V424.204V423.531V422.859V422.187V421.515V420.844V420.173V419.503V418.833V418.163V417.493V416.824V416.155V415.487V414.819V414.151V413.484V412.817V412.151V411.485V410.819V410.154V409.489V408.825V408.161V407.497V406.834V406.171V405.509V404.848V404.186V403.526V402.865V402.206V401.546V400.887V400.229V399.571V398.914V398.257V397.601V396.945V396.29ZM557.444 805.329V528.712L808.044 393.054L810.961 648.66C811.066 657.904 806.107 666.465 798.036 670.973L557.444 805.329ZM543.39 217.151L774.581 342.941L527.427 476.734L510.674 467.687L433.452 425.984L284.17 345.366L519.333 217.121C526.808 213.045 535.819 213.032 543.39 217.151Z" stroke="#20CED9" stroke-width="60"/>
<line x1="30" y1="-30" x2="129.62" y2="-30" transform="matrix(-0.789816 0.613344 -0.591835 -0.806059 265 808.816)" stroke="#20CED9" stroke-width="60" stroke-linecap="round"/>
<line x1="30" y1="-30" x2="129.746" y2="-30" transform="matrix(0.771666 0.636028 -0.614687 0.788772 97.7734 152.609)" stroke="#20CED9" stroke-width="60" stroke-linecap="round"/>
<line x1="30" y1="-30" x2="129.426" y2="-30" transform="matrix(-0.816968 0.576683 -0.555123 -0.831768 948.42 152.609)" stroke="#20CED9" stroke-width="60" stroke-linecap="round"/>
<line x1="30" y1="-30" x2="129.77" y2="-30" transform="matrix(0.768088 0.640345 -0.619047 0.785354 779.58 837.922)" stroke="#20CED9" stroke-width="60" stroke-linecap="round"/>
<line x1="30" y1="232.883" x2="30" y2="829.09" stroke="#20CED9" stroke-width="60" stroke-linecap="round"/>
<line x1="1054" y1="232.883" x2="1054" y2="829.09" stroke="#20CED9" stroke-width="60" stroke-linecap="round"/>
<line x1="251.273" y1="30" x2="829.344" y2="30" stroke="#20CED9" stroke-width="60" stroke-linecap="round"/>
<line x1="243.549" y1="1054" x2="821.619" y2="1054" stroke="#20CED9" stroke-width="60" stroke-linecap="round"/>
</svg>
