<svg width="281" height="136" viewBox="0 0 281 136" fill="none" xmlns="http://www.w3.org/2000/svg">
<path fill-rule="evenodd" clip-rule="evenodd" d="M46.1333 7.66669L20.464 40.9291L9 90.5885L46.1333 110.733L83.2667 90.5885L71.8027 40.9291L46.1333 7.66669Z" stroke="#4A5568" stroke-width="4"/>
<path d="M20.4667 40.8667L46.1333 110.733L71.8 40.8667" stroke="#4A5568" stroke-width="4"/>
<path d="M46.2 17C50.6183 17 54.2 13.4183 54.2 9C54.2 4.58172 50.6183 1 46.2 1C41.7817 1 38.2 4.58172 38.2 9C38.2 13.4183 41.7817 17 46.2 17Z" fill="#48DCE5" stroke="#4A5568" stroke-width="0.666667"/>
<path d="M46.2 119.8C50.6183 119.8 54.2 116.218 54.2 111.8C54.2 107.382 50.6183 103.8 46.2 103.8C41.7817 103.8 38.2 107.382 38.2 111.8C38.2 116.218 41.7817 119.8 46.2 119.8Z" fill="#48DCE5" stroke="#4A5568" stroke-width="0.666667"/>
<path d="M83.2667 99.6667C87.6849 99.6667 91.2667 96.085 91.2667 91.6667C91.2667 87.2484 87.6849 83.6667 83.2667 83.6667C78.8484 83.6667 75.2667 87.2484 75.2667 91.6667C75.2667 96.085 78.8484 99.6667 83.2667 99.6667Z" fill="#48DCE5" stroke="#4A5568" stroke-width="0.666667"/>
<path d="M72.8667 50.3333C77.285 50.3333 80.8667 46.7516 80.8667 42.3333C80.8667 37.915 77.285 34.3333 72.8667 34.3333C68.4484 34.3333 64.8667 37.915 64.8667 42.3333C64.8667 46.7516 68.4484 50.3333 72.8667 50.3333Z" fill="#48DCE5" stroke="#4A5568" stroke-width="0.666667"/>
<path d="M9 99.6667C13.4183 99.6667 17 96.085 17 91.6667C17 87.2484 13.4183 83.6667 9 83.6667C4.58172 83.6667 1 87.2484 1 91.6667C1 96.085 4.58172 99.6667 9 99.6667Z" fill="#48DCE5" stroke="#4A5568" stroke-width="0.666667"/>
<path d="M20.4667 48.8667C24.885 48.8667 28.4667 45.285 28.4667 40.8667C28.4667 36.4484 24.885 32.8667 20.4667 32.8667C16.0484 32.8667 12.4667 36.4484 12.4667 40.8667C12.4667 45.285 16.0484 48.8667 20.4667 48.8667Z" fill="#48DCE5" stroke="#4A5568" stroke-width="0.666667"/>
<path d="M110.14 87.7397C106.521 86.6997 103.885 85.4253 102.229 83.9165C100.589 82.3931 99.7686 80.5181 99.7686 78.2915C99.7686 75.772 100.772 73.6919 102.779 72.0513C104.8 70.396 107.422 69.5684 110.645 69.5684C112.842 69.5684 114.798 69.9932 116.512 70.8428C118.24 71.6924 119.573 72.8643 120.511 74.3584C121.463 75.8525 121.939 77.4858 121.939 79.2583H117.698C117.698 77.3247 117.083 75.8086 115.853 74.71C114.622 73.5967 112.886 73.04 110.645 73.04C108.565 73.04 106.939 73.5015 105.767 74.4243C104.61 75.3325 104.031 76.5996 104.031 78.2256C104.031 79.5293 104.581 80.6353 105.679 81.5435C106.792 82.437 108.675 83.2573 111.326 84.0044C113.992 84.7515 116.072 85.5791 117.566 86.4873C119.075 87.3809 120.188 88.4282 120.906 89.6294C121.639 90.8306 122.005 92.2441 122.005 93.8701C122.005 96.4629 120.994 98.543 118.973 100.11C116.951 101.663 114.249 102.439 110.865 102.439C108.667 102.439 106.617 102.022 104.712 101.187C102.808 100.337 101.336 99.1802 100.296 97.7153C99.2705 96.2505 98.7578 94.5879 98.7578 92.7275H102.999C102.999 94.6611 103.709 96.1919 105.13 97.3198C106.565 98.4331 108.477 98.9897 110.865 98.9897C113.091 98.9897 114.798 98.5356 115.984 97.6274C117.171 96.7192 117.764 95.4814 117.764 93.9141C117.764 92.3467 117.215 91.1382 116.116 90.2886C115.018 89.4243 113.025 88.5747 110.14 87.7397ZM130.618 78.2256L130.728 80.8623C132.471 78.8115 134.822 77.7861 137.781 77.7861C141.106 77.7861 143.37 79.0605 144.571 81.6094C145.362 80.4668 146.387 79.5439 147.647 78.8408C148.921 78.1377 150.423 77.7861 152.151 77.7861C157.366 77.7861 160.018 80.5474 160.105 86.0698V102H156.041V86.3115C156.041 84.6123 155.652 83.3452 154.876 82.5103C154.1 81.6606 152.796 81.2358 150.965 81.2358C149.456 81.2358 148.204 81.6899 147.208 82.5981C146.211 83.4917 145.633 84.7002 145.472 86.2236V102H141.385V86.4214C141.385 82.9644 139.693 81.2358 136.309 81.2358C133.643 81.2358 131.819 82.3711 130.838 84.6416V102H126.773V78.2256H130.618ZM180.936 102C180.701 101.531 180.511 100.696 180.364 99.4951C178.475 101.458 176.219 102.439 173.597 102.439C171.253 102.439 169.327 101.78 167.818 100.462C166.324 99.1289 165.577 97.4443 165.577 95.4082C165.577 92.9326 166.514 91.0137 168.389 89.6514C170.279 88.2744 172.93 87.5859 176.343 87.5859H180.298V85.7183C180.298 84.2974 179.874 83.1694 179.024 82.3345C178.174 81.4849 176.922 81.0601 175.267 81.0601C173.816 81.0601 172.601 81.4263 171.619 82.1587C170.638 82.8911 170.147 83.7773 170.147 84.8174H166.06C166.06 83.6309 166.478 82.4883 167.312 81.3896C168.162 80.2764 169.305 79.3975 170.74 78.7529C172.19 78.1084 173.78 77.7861 175.508 77.7861C178.248 77.7861 180.394 78.4746 181.946 79.8516C183.499 81.2139 184.305 83.0962 184.363 85.4985V96.4409C184.363 98.6235 184.642 100.359 185.198 101.648V102H180.936ZM174.19 98.9019C175.464 98.9019 176.673 98.5723 177.815 97.9131C178.958 97.2539 179.786 96.397 180.298 95.3423V90.4644H177.112C172.132 90.4644 169.642 91.9219 169.642 94.8369C169.642 96.1113 170.066 97.1074 170.916 97.8252C171.766 98.543 172.857 98.9019 174.19 98.9019ZM202.227 81.873C201.612 81.7705 200.945 81.7192 200.228 81.7192C197.562 81.7192 195.752 82.8545 194.8 85.125V102H190.735V78.2256H194.69L194.756 80.9722C196.089 78.8481 197.979 77.7861 200.425 77.7861C201.216 77.7861 201.817 77.8887 202.227 78.0938V81.873ZM212.598 72.4688V78.2256H217.037V81.3677H212.598V96.1113C212.598 97.0635 212.796 97.7812 213.191 98.2646C213.587 98.7334 214.261 98.9678 215.213 98.9678C215.682 98.9678 216.326 98.8799 217.146 98.7041V102C216.077 102.293 215.037 102.439 214.026 102.439C212.21 102.439 210.84 101.89 209.917 100.792C208.995 99.6929 208.533 98.1328 208.533 96.1113V81.3677H204.205V78.2256H208.533V72.4688H212.598Z" fill="#4A5568"/>
<path d="M246.875 87.0366C246.875 90.1274 246.385 92.7935 245.403 95.0347C244.422 97.2612 243.045 99.0044 241.272 100.264L246.985 104.747L244.107 107.405L237.361 102.044C236.307 102.308 235.193 102.439 234.021 102.439C231.502 102.439 229.268 101.824 227.32 100.594C225.372 99.3486 223.855 97.5835 222.771 95.2983C221.702 92.9985 221.153 90.3398 221.124 87.3223V85.0151C221.124 81.939 221.658 79.2217 222.728 76.8633C223.797 74.5049 225.306 72.7031 227.254 71.458C229.217 70.1982 231.458 69.5684 233.978 69.5684C236.556 69.5684 238.819 70.1909 240.767 71.436C242.73 72.6812 244.239 74.4756 245.293 76.8193C246.348 79.1484 246.875 81.873 246.875 84.9932V87.0366ZM242.657 84.9712C242.657 81.2065 241.902 78.3062 240.394 76.27C238.899 74.2192 236.761 73.1938 233.978 73.1938C231.326 73.1938 229.231 74.2119 227.693 76.248C226.17 78.2695 225.386 81.082 225.342 84.6855V87.0366C225.342 90.6987 226.104 93.5845 227.627 95.6938C229.166 97.8032 231.297 98.8579 234.021 98.8579C236.746 98.8579 238.855 97.8691 240.35 95.8916C241.844 93.8994 242.613 91.0503 242.657 87.3442V84.9712ZM257.62 98.5503H272.781V102H253.379V70.0078H257.62V98.5503Z" fill="#48DCE5"/>
</svg>
