<svg width="100" height="100" viewBox="0 0 100 100" fill="none" xmlns="http://www.w3.org/2000/svg">
<path d="M49.9831 13.2583C54.816 13.2583 58.7338 10.2904 58.7338 6.62917C58.7338 2.96798 54.816 0 49.9831 0C45.1502 0 41.2324 2.96798 41.2324 6.62917C41.2324 10.2904 45.1502 13.2583 49.9831 13.2583Z" fill="#48CDD6"/>
<path d="M50.0175 100C54.8504 100 58.7682 97.032 58.7682 93.3708C58.7682 89.7096 54.8504 86.7416 50.0175 86.7416C45.1847 86.7416 41.2668 89.7096 41.2668 93.3708C41.2668 97.032 45.1847 100 50.0175 100Z" fill="#48CDD6"/>
<path d="M8.75067 81.5793C13.5835 81.5793 17.5013 78.6113 17.5013 74.9502C17.5013 71.289 13.5835 68.321 8.75067 68.321C3.91781 68.321 0 71.289 0 74.9502C0 78.6113 3.91781 81.5793 8.75067 81.5793Z" fill="#48CDD6"/>
<path d="M19.0372 38.8606C23.307 38.8606 26.7683 35.8354 26.7683 32.1036C26.7683 28.3718 23.307 25.3466 19.0372 25.3466C14.7675 25.3466 11.3062 28.3718 11.3062 32.1036C11.3062 35.8354 14.7675 38.8606 19.0372 38.8606Z" fill="#48CDD6"/>
<path d="M25.5594 27.3021L38.7224 10.2289L42.3487 15.0156L25.5594 27.3021Z" fill="#4A5568"/>
<path d="M10.1241 67.1949L11.9648 39.6037L16.5666 41.1052L10.1241 67.1949Z" fill="#4A5568"/>
<path d="M45.2817 82.9613L21.5363 41.6684L25.5859 39.0406L45.2817 82.9613Z" fill="#4A5568"/>
<path d="M17.6711 78.8319L40.128 87.0906L37.9191 91.5952L17.6711 78.8319Z" fill="#4A5568"/>
<path d="M91.2787 81.3916C86.4621 81.3916 82.5574 78.4237 82.5574 74.7625C82.5574 71.1013 86.4621 68.1333 91.2787 68.1333C96.0953 68.1333 100 71.1013 100 74.7625C100 78.4237 96.0953 81.3916 91.2787 81.3916Z" fill="#48CDD6"/>
<path d="M80.9119 38.8606C76.6565 38.8606 73.2068 35.8354 73.2068 32.1036C73.2068 28.3718 76.6565 25.3466 80.9119 25.3466C85.1673 25.3466 88.6169 28.3718 88.6169 32.1036C88.6169 35.8354 85.1673 38.8606 80.9119 38.8606Z" fill="#48CDD6"/>
<path d="M73.6952 27.4167L60.4788 10.4457L57.0715 15.0158L73.6952 27.4167Z" fill="#4A5568"/>
<path d="M89.9102 67.0072L88.0756 39.416L83.4893 40.9175L89.9102 67.0072Z" fill="#4A5568"/>
<path d="M54.8702 82.7735L78.5358 41.4807L74.4998 38.8529L54.8702 82.7735Z" fill="#4A5568"/>
<path d="M82.3886 78.6442L60.0071 86.9029L62.2085 91.4075L82.3886 78.6442Z" fill="#4A5568"/>
</svg>
