<svg width="354" height="356" viewBox="0 0 354 356" fill="none" xmlns="http://www.w3.org/2000/svg">
<path d="M176.837 47.0773C193.935 47.0773 207.796 36.5387 207.796 23.5386C207.796 10.5385 193.935 -9.15527e-05 176.837 -9.15527e-05C159.738 -9.15527e-05 145.877 10.5385 145.877 23.5386C145.877 36.5387 159.738 47.0773 176.837 47.0773Z" fill="#48CDD6"/>
<path d="M176.959 355.077C194.058 355.077 207.919 344.539 207.919 331.539C207.919 318.539 194.058 308 176.959 308C159.861 308 146 318.539 146 331.539C146 344.539 159.861 355.077 176.959 355.077Z" fill="#48CDD6"/>
<path d="M30.9593 289.67C48.0577 289.67 61.9187 279.131 61.9187 266.131C61.9187 253.131 48.0577 242.593 30.9593 242.593C13.861 242.593 0 253.131 0 266.131C0 279.131 13.861 289.67 30.9593 289.67Z" fill="#48CDD6"/>
<path d="M67.352 137.985C82.4581 137.985 94.704 127.243 94.704 113.993C94.704 100.742 82.4581 89.9999 67.352 89.9999C52.2459 89.9999 40 100.742 40 113.993C40 127.243 52.2459 137.985 67.352 137.985Z" fill="#48CDD6"/>
<path d="M90.4276 96.9437L136.997 36.3203L149.827 53.317L90.4276 96.9437Z" fill="#4A5568"/>
<path d="M35.8182 238.594L42.3306 140.624L58.6115 145.955L35.8182 238.594Z" fill="#4A5568"/>
<path d="M160.205 294.577L76.1949 147.955L90.5221 138.624L160.205 294.577Z" fill="#4A5568"/>
<path d="M62.5189 279.915L141.97 309.239L134.155 325.234L62.5189 279.915Z" fill="#4A5568"/>
<path d="M322.938 289.004C305.897 289.004 292.083 278.465 292.083 265.465C292.083 252.465 305.897 241.926 322.938 241.926C339.979 241.926 353.794 252.465 353.794 265.465C353.794 278.465 339.979 289.004 322.938 289.004Z" fill="#48CDD6"/>
<path d="M286.26 137.985C271.205 137.985 259 127.243 259 113.993C259 100.742 271.205 89.9999 286.26 89.9999C301.315 89.9999 313.52 100.742 313.52 113.993C313.52 127.243 301.315 137.985 286.26 137.985Z" fill="#48CDD6"/>
<path d="M260.729 97.3506L213.971 37.0904L201.916 53.3176L260.729 97.3506Z" fill="#4A5568"/>
<path d="M318.096 237.927L311.606 139.957L295.379 145.289L318.096 237.927Z" fill="#4A5568"/>
<path d="M194.127 293.91L277.855 147.289L263.576 137.958L194.127 293.91Z" fill="#4A5568"/>
<path d="M291.485 279.248L212.301 308.573L220.089 324.568L291.485 279.248Z" fill="#4A5568"/>
</svg>
