<svg width="210" height="250" viewBox="0 0 210 250" fill="none" xmlns="http://www.w3.org/2000/svg">
<path d="M104.964 33.1458C115.113 33.1458 123.34 25.7258 123.34 16.5728C123.34 7.41987 115.113 -9.15527e-05 104.964 -9.15527e-05C94.815 -9.15527e-05 86.5876 7.41987 86.5876 16.5728C86.5876 25.7258 94.815 33.1458 104.964 33.1458Z" fill="#48CDD6"/>
<path d="M105.037 250C115.186 250 123.413 242.58 123.413 233.427C123.413 224.274 115.186 216.854 105.037 216.854C94.888 216.854 86.6606 224.274 86.6606 233.427C86.6606 242.58 94.888 250 105.037 250Z" fill="#48CDD6"/>
<path d="M18.3764 203.948C28.5254 203.948 36.7528 196.528 36.7528 187.375C36.7528 178.222 28.5254 170.803 18.3764 170.803C8.2274 170.803 0 178.222 0 187.375C0 196.528 8.2274 203.948 18.3764 203.948Z" fill="#48CDD6"/>
<path d="M39.9777 97.1515C48.9441 97.1515 56.2129 89.5884 56.2129 80.2589C56.2129 70.9294 48.9441 63.3664 39.9777 63.3664C31.0112 63.3664 23.7424 70.9294 23.7424 80.2589C23.7424 89.5884 31.0112 97.1515 39.9777 97.1515Z" fill="#48CDD6"/>
<path d="M53.6748 68.2553L81.3171 25.5721L88.9324 37.5389L53.6748 68.2553Z" fill="#4A5568"/>
<path d="M21.2605 167.987L25.126 99.0092L34.7898 102.763L21.2605 167.987Z" fill="#4A5568"/>
<path d="M95.0919 207.403L45.2266 104.171L53.7308 97.6015L95.0919 207.403Z" fill="#4A5568"/>
<path d="M37.1091 197.08L84.2686 217.726L79.63 228.988L37.1091 197.08Z" fill="#4A5568"/>
<path d="M191.685 203.479C181.57 203.479 173.371 196.059 173.371 186.906C173.371 177.753 181.57 170.333 191.685 170.333C201.8 170.333 210 177.753 210 186.906C210 196.059 201.8 203.479 191.685 203.479Z" fill="#48CDD6"/>
<path d="M169.915 97.1515C160.978 97.1515 153.734 89.5884 153.734 80.2589C153.734 70.9294 160.978 63.3664 169.915 63.3664C178.851 63.3664 186.095 70.9294 186.095 80.2589C186.095 89.5884 178.851 97.1515 169.915 97.1515Z" fill="#48CDD6"/>
<path d="M154.76 68.5418L127.006 26.1143L119.85 37.5394L154.76 68.5418Z" fill="#4A5568"/>
<path d="M188.811 167.518L184.959 98.5399L175.327 102.294L188.811 167.518Z" fill="#4A5568"/>
<path d="M115.227 206.934L164.925 103.702L156.45 97.1322L115.227 206.934Z" fill="#4A5568"/>
<path d="M173.016 196.611L126.015 217.257L130.638 228.519L173.016 196.611Z" fill="#4A5568"/>
</svg>
